# xmcd CD database file
#
# Track frame offsets:
#	182
#	23435
#	30577
#	60027
#	64395
#	83510
#	85940
#	108725
#	141582
#	156457
#	178935
#	189842
#	211460
#
# Disc length: 2863 seconds
#
# Revision: 0
# Processed by: cddbd v1.5.2PL0 Copyright (c) Steve Scherf et al.
# Submitted via: CDex 1.51
#
DISCID=ac0b2d0d
DTITLE=Deschepper Godard Micenmacher - Impossible Trio
DYEAR=1991
DGENRE=Jazz
TTITLE0=Chien Méchant
TTITLE1=Passage N° 1
TTITLE2=D'Autres Temps De Collines Et De Camps
TTITLE3=Passage N° 2
TTITLE4=Shergui
TTITLE5=Passage N° 3
TTITLE6=Manitoba
TTITLE7=24 De Mai
TTITLE8=Angelica
TTITLE9=L'Araignée
TTITLE10=Passage N° 4
TTITLE11=Paulette Goddard
TTITLE12=Mutter
EXTD=YEAR: 1991
EXTT0=
EXTT1=
EXTT2=
EXTT3=
EXTT4=
EXTT5=
EXTT6=
EXTT7=
EXTT8=
EXTT9=
EXTT10=
EXTT11=
EXTT12=
PLAYORDER=
